<svg height="512pt" viewBox="0 -39 512.0006 512" width="512pt" xmlns="http://www.w3.org/2000/svg"><path d="m264.65625 434.984375c-30.1875.003906-60.644531-7.714844-88.292969-23.679687-36.527343-21.085938-64.335937-54.589844-78.304687-94.328126-12.132813-34.515624-13.242188-71.875-3.394532-106.71875-18.613281-8.402343-34.519531-21.835937-46.019531-38.984374l-38.132812-11.960938c-5.113281-1.601562-8.980469-5.8125-10.148438-11.039062-1.171875-5.230469.539063-10.6875 4.480469-14.3125l25.160156-23.140626c-.003906-.273437-.003906-.546874-.003906-.820312 0-29.671875 11.636719-57.488281 32.765625-78.324219 20.75-20.460937 48.117187-31.675781 77.214844-31.675781.527343 0 1.058593.00390625 1.585937.0117188 56.441406.7890622 102.660156 44.4296872 107.933594 99.4804692 12.261719-9.03125 26.042969-15.925782 40.902344-20.375l181.90625-54.484376c7.503906-2.25 15.476562 1.65625 18.296875 8.964844 12.582031 32.582032 16.957031 66.867188 13.003906 101.90625-4.222656 37.402344-18.285156 72.6875-40.519531 102.695313l31.101562-5.929688c4.394532-.839843 8.925782.328125 12.371094 3.179688 3.441406 2.847656 5.4375 7.085937 5.4375 11.554687v167.996094c0 5.128906-2.617188 9.898438-6.945312 12.65625-4.324219 2.75-9.757813 3.105469-14.402344.9375l-99.753906-46.59375c-33.914063 34.679688-79.757813 52.984375-126.242188 52.984375zm0 0" fill="#e1ebf0"/><path d="m490.605469 33.597656c-2.820313-7.308594-10.792969-11.214844-18.296875-8.964844l-181.90625 54.484376c-28.046875 8.402343-52.074219 25.339843-69.433594 48.949218-17.132812 23.3125-25.96875 51.6875-25.96875 80.613282 0 63.871093 51.855469 115.609374 115.726562 115.464843 2.675782-.007812 4.199219-.015625 4.261719-.019531 47.621094-5.375 92.75-27.234375 127.066407-61.554688 34.320312-34.316406 56.179687-79.445312 61.554687-127.066406 3.953125-35.039062-.421875-69.324218-13.003906-101.90625zm0 0" fill="#cde1e6"/><path d="m506.5625 235.449219c-3.445312-2.851563-7.976562-4.019531-12.371094-3.179688l-31.101562 5.929688c22.234375-30.007813 36.296875-65.292969 40.519531-102.695313 3.953125-35.039062-.421875-69.324218-13.003906-101.90625-2.820313-7.308594-10.792969-11.214844-18.296875-8.964844l-181.90625 54.484376c-12.289063 3.679687-23.835938 9.035156-34.402344 15.886718v339.746094c2.886719.140625 5.773438.234375 8.660156.234375 46.480469 0 92.324219-18.304687 126.238282-52.984375l99.753906 46.59375c4.644531 2.167969 10.078125 1.8125 14.402344-.9375 4.324218-2.757812 6.945312-7.527344 6.945312-12.65625v-167.996094c0-4.46875-1.996094-8.707031-5.4375-11.554687zm0 0" fill="#cde1e6"/><path d="m472.308594 24.632812-181.90625 54.484376c-12.320313 3.691406-23.859375 9.027343-34.402344 15.851562v215.542969c16.300781 8.738281 34.9375 13.675781 54.726562 13.632812 2.675782-.007812 4.199219-.015625 4.261719-.019531 47.621094-5.375 92.75-27.234375 127.066407-61.554688 34.320312-34.316406 56.179687-79.445312 61.554687-127.066406 3.953125-35.039062-.421875-69.328125-13.003906-101.90625-2.820313-7.308594-10.792969-11.214844-18.296875-8.964844zm0 0" fill="#bfd2d9"/><path d="m125 100c0 8.285156-6.714844 15-15 15s-15-6.714844-15-15c0-8.28125 6.714844-15 15-15s15 6.71875 15 15zm0 0" fill="#3f4a4a"/><path d="m30.003906 110.820312-25.160156 23.140626c-3.941406 3.628906-5.652344 9.082031-4.480469 14.3125 1.167969 5.230468 5.035157 9.4375 10.148438 11.039062l38.121093 11.960938c-11.621093-17.292969-18.453124-38.066407-18.621093-60.425782zm0 0" fill="#ffd422"/></svg>