<svg width="292" height="264" viewBox="0 0 292 264" fill="none" xmlns="http://www.w3.org/2000/svg">
<path fill-rule="evenodd" clip-rule="evenodd" d="M77.4178 193.351H145.584V234.471C142.156 248.464 128.199 258.938 111.501 258.938C94.8008 258.938 80.8444 248.464 77.4178 234.471V193.351Z" fill="#67E5DD"/>
<path fill-rule="evenodd" clip-rule="evenodd" d="M111.501 52.0952C150.152 52.0952 181.487 79.3377 181.487 112.945C181.487 155.086 145.917 168.791 145.917 186.803C145.917 189.117 145.802 191.296 145.582 193.351H77.4178C77.2004 191.296 77.0852 189.117 77.0852 186.803C77.0852 168.791 41.5148 155.086 41.5148 112.945C41.5148 79.3377 72.8476 52.0952 111.501 52.0952V52.0952Z" fill="#FEC96B"/>
<path fill-rule="evenodd" clip-rule="evenodd" d="M111.501 47.2557C78.8355 47.2557 50.0052 65.3619 39.7559 92.3114C38.7905 94.8483 40.3755 97.5856 43.2933 98.4249C46.2133 99.2643 49.3616 97.8881 50.3248 95.3493C59.063 72.3715 83.6471 56.9346 111.501 56.9346C147.022 56.9346 175.921 82.0598 175.921 112.945C175.921 136.815 163.624 151.076 153.744 162.536C146.556 170.871 140.349 178.071 140.349 186.803C140.349 187.379 140.34 187.946 140.325 188.512H117.067V177.394C117.067 174.721 114.575 172.555 111.501 172.555C108.427 172.555 105.935 174.721 105.935 177.394V188.512H82.6752C82.66 187.946 82.6513 187.377 82.6513 186.803C82.6513 178.069 76.4438 170.871 69.258 162.534C61.9808 154.093 53.7318 144.526 49.6421 130.932C48.8637 128.346 45.822 126.798 42.8498 127.475C39.8754 128.151 38.0947 130.796 38.8731 133.382C43.5151 148.813 52.8491 159.64 60.3502 168.339C66.5902 175.578 71.5192 181.296 71.5192 186.803C71.5192 189.12 71.6323 191.383 71.8519 193.538V234.473C71.8519 234.603 71.8627 234.73 71.8758 234.857C71.8779 234.889 71.8758 234.919 71.8801 234.951C71.8997 235.129 71.9323 235.305 71.9736 235.477C71.9758 235.479 71.9758 235.479 71.9758 235.48C73.9065 243.363 78.8551 250.532 85.9126 255.664C93.105 260.897 102.193 263.778 111.501 263.778C120.809 263.778 129.895 260.897 137.09 255.664C144.145 250.532 149.096 243.363 151.026 235.48C151.026 235.479 151.029 235.477 151.029 235.475C151.07 235.303 151.1 235.129 151.122 234.949C151.124 234.919 151.124 234.887 151.126 234.857C151.137 234.728 151.148 234.601 151.148 234.471V193.538C151.368 191.381 151.483 189.12 151.483 186.803C151.483 181.294 156.412 175.578 162.652 168.339C172.949 156.396 187.053 140.04 187.053 112.945C187.053 76.7232 153.162 47.2557 111.501 47.2557V47.2557ZM82.9839 218.75H140.018V229.632H82.9839V218.75ZM140.018 209.072H82.9839V198.191H140.018V209.072ZM111.501 254.099C100.184 254.099 89.9784 248.148 85.1429 239.31H137.859C133.022 248.148 122.816 254.099 111.501 254.099Z" fill="black"/>
<path fill-rule="evenodd" clip-rule="evenodd" d="M111.501 38.5732C114.575 38.5732 117.067 36.4068 117.067 33.7338V20.8394C117.067 18.1664 114.575 16 111.501 16C108.427 16 105.935 18.1664 105.935 20.8394V33.7338C105.935 36.4068 108.427 38.5732 111.501 38.5732Z" fill="black"/>
<path fill-rule="evenodd" clip-rule="evenodd" d="M20.3965 108.106H5.56603C2.49167 108.106 0 110.272 0 112.945C0 115.618 2.49167 117.785 5.56603 117.785H20.3965C23.4708 117.785 25.9625 115.618 25.9625 112.945C25.9625 110.272 23.4708 108.106 20.3965 108.106Z" fill="black"/>
<path fill-rule="evenodd" clip-rule="evenodd" d="M136.985 122.722C136.985 120.049 134.494 117.883 131.419 117.883H91.5829C88.5086 117.883 86.0169 120.049 86.0169 122.722C86.0169 125.395 88.5086 127.562 91.5829 127.562H105.935V138.679C105.935 141.352 108.427 143.518 111.501 143.518C114.575 143.518 117.067 141.352 117.067 138.679V127.562H131.419C134.494 127.562 136.985 125.395 136.985 122.722Z" fill="black"/>
<path fill-rule="evenodd" clip-rule="evenodd" d="M43.1453 60.3562C44.2325 61.3014 45.6566 61.774 47.0807 61.774C48.5048 61.774 49.9289 61.3014 51.0161 60.3562C53.1903 58.4658 53.1903 55.4015 51.0161 53.513L40.5276 44.3956C38.3555 42.5052 34.8311 42.5052 32.6569 44.3956C30.4826 46.2841 30.4826 49.3484 32.6569 51.2388L43.1453 60.3562Z" fill="black"/>
<path fill-rule="evenodd" clip-rule="evenodd" d="M39.3058 168.872L28.8173 177.99C26.6452 179.88 26.6452 182.944 28.8173 184.833C29.9044 185.778 31.3285 186.251 32.7548 186.251C34.1789 186.251 35.603 185.778 36.6902 184.833L47.1765 175.716C49.3507 173.825 49.3507 170.763 47.1765 168.872C45.0023 166.982 41.4778 166.982 39.3058 168.872Z" fill="black"/>
<path fill-rule="evenodd" clip-rule="evenodd" d="M175.921 61.7741C177.346 61.7741 178.77 61.3015 179.857 60.3563L190.343 51.2389C192.517 49.3485 192.517 46.2842 190.343 44.3938C188.171 42.5034 184.647 42.5053 182.472 44.3938L171.986 53.5111C169.812 55.4015 169.812 58.4659 171.984 60.3563C173.071 61.3015 174.497 61.7741 175.921 61.7741V61.7741Z" fill="black"/>
<path fill-rule="evenodd" clip-rule="evenodd" d="M183.696 168.872C181.524 166.982 178 166.982 175.826 168.872C173.651 170.761 173.651 173.825 175.826 175.716L186.312 184.833C187.399 185.778 188.823 186.251 190.247 186.251C191.671 186.251 193.096 185.778 194.183 184.833C196.357 182.944 196.357 179.88 194.183 177.99L183.696 168.872Z" fill="black"/>
<path fill-rule="evenodd" clip-rule="evenodd" d="M217.434 108.106H202.604C199.529 108.106 197.037 110.272 197.037 112.945C197.037 115.618 199.529 117.785 202.604 117.785H217.434C220.508 117.785 223 115.618 223 112.945C223 110.272 220.508 108.106 217.434 108.106V108.106Z" fill="black"/>
<path fill-rule="evenodd" clip-rule="evenodd" d="M111.501 153.197C108.435 153.197 105.935 155.371 105.935 158.037C105.935 160.702 108.435 162.876 111.501 162.876C114.567 162.876 117.067 160.702 117.067 158.037C117.067 155.371 114.567 153.197 111.501 153.197Z" fill="black"/>
<path fill-rule="evenodd" clip-rule="evenodd" d="M41.5148 117.785C44.5805 117.785 47.0809 115.611 47.0809 112.945C47.0809 110.28 44.5805 108.106 41.5148 108.106C38.447 108.106 35.9488 110.28 35.9488 112.945C35.9488 115.611 38.447 117.785 41.5148 117.785Z" fill="black"/>
<g opacity="0.8" filter="url(#filter0_d)">
<rect x="24.6222" y="202.73" width="91.1748" height="25.8704" fill="white"/>
<ellipse cx="27.2028" cy="211.045" rx="17.2028" ry="17.5549" fill="white"/>
<ellipse cx="41.825" cy="187.947" rx="17.2028" ry="17.5549" fill="white"/>
<ellipse cx="115.797" cy="211.045" rx="17.2028" ry="17.5549" fill="white"/>
<ellipse cx="81.8217" cy="187.946" rx="33.9755" ry="32.338" fill="white"/>
</g>
<g opacity="0.8" filter="url(#filter1_d)">
<rect x="95.5635" y="79.741" width="153.163" height="43.4592" fill="white"/>
<ellipse cx="99.8986" cy="93.7099" rx="28.8986" ry="29.4901" fill="white"/>
<ellipse cx="124.462" cy="54.9071" rx="28.8986" ry="29.4901" fill="white"/>
<ellipse cx="248.726" cy="93.7099" rx="28.8986" ry="29.4901" fill="white"/>
<ellipse cx="191.652" cy="54.907" rx="57.0747" ry="54.3239" fill="white"/>
</g>
<defs>
<filter id="filter0_d" x="10" y="155.608" width="131.2" height="81.1916" filterUnits="userSpaceOnUse" color-interpolation-filters="sRGB">
<feFlood flood-opacity="0" result="BackgroundImageFix"/>
<feColorMatrix in="SourceAlpha" type="matrix" values="0 0 0 0 0 0 0 0 0 0 0 0 0 0 0 0 0 0 127 0"/>
<feOffset dx="4.1" dy="4.1"/>
<feGaussianBlur stdDeviation="2.05"/>
<feColorMatrix type="matrix" values="0 0 0 0 0 0 0 0 0 0 0 0 0 0 0 0 0 0 0.25 0"/>
<feBlend mode="normal" in2="BackgroundImageFix" result="effect1_dropShadow"/>
<feBlend mode="normal" in="SourceGraphic" in2="effect1_dropShadow" result="shape"/>
</filter>
<filter id="filter1_d" x="71" y="0.583008" width="220.4" height="136.392" filterUnits="userSpaceOnUse" color-interpolation-filters="sRGB">
<feFlood flood-opacity="0" result="BackgroundImageFix"/>
<feColorMatrix in="SourceAlpha" type="matrix" values="0 0 0 0 0 0 0 0 0 0 0 0 0 0 0 0 0 0 127 0"/>
<feOffset dx="6.8875" dy="6.8875"/>
<feGaussianBlur stdDeviation="3.44375"/>
<feColorMatrix type="matrix" values="0 0 0 0 0 0 0 0 0 0 0 0 0 0 0 0 0 0 0.25 0"/>
<feBlend mode="normal" in2="BackgroundImageFix" result="effect1_dropShadow"/>
<feBlend mode="normal" in="SourceGraphic" in2="effect1_dropShadow" result="shape"/>
</filter>
</defs>
</svg>
