<svg width="120" height="74" viewBox="0 0 120 74" fill="none" xmlns="http://www.w3.org/2000/svg">
<rect y="44" width="120" height="30" rx="15" fill="white"/>
<ellipse cx="61" cy="37" rx="48" ry="37" fill="white"/>
<path d="M53 29.2371C53 32.6817 49.4183 30.0167 45 30.0167C40.5817 30.0167 37 32.6817 37 29.2371C37 25.7924 40.5817 23 45 23C49.4183 23 53 25.7924 53 29.2371Z" fill="#C4C4C4"/>
<path d="M84 29.2371C84 32.6817 80.4183 30.0167 76 30.0167C71.5817 30.0167 68 32.6817 68 29.2371C68 25.7924 71.5817 23 76 23C80.4183 23 84 25.7924 84 29.2371Z" fill="#C4C4C4"/>
<path d="M72 57.0585C72 60.8391 66.6274 63.9039 60 63.9039C53.3726 63.9039 48 60.8391 48 57.0585C48 53.2779 53.3726 55.8618 60 55.8618C66.6274 55.8618 72 53.2779 72 57.0585Z" fill="#C4C4C4"/>
<ellipse cx="36" cy="41" rx="8" ry="4" fill="#EBAFDE"/>
<ellipse cx="85" cy="41" rx="8" ry="4" fill="#EBAFDE"/>
</svg>
