<svg width="512" height="512" viewBox="0 0 512 512" fill="none" xmlns="http://www.w3.org/2000/svg">
<path d="M155.135 345.112L217.061 283.186L228.736 294.861L166.81 356.787L155.135 345.112Z" fill="#B6B1B7"/>
<path d="M170.99 352.678L159.312 341L140.723 345.768L119.369 367.121C109.694 376.796 104.926 387.714 114.601 397.389C124.276 407.064 139.962 407.064 149.637 397.389L170.99 376.036C177.44 369.585 177.44 359.128 170.99 352.678Z" fill="#DAD8DB"/>
<path d="M159.375 341.063L159.312 341C152.862 334.55 142.405 334.55 135.955 341L114.601 362.353C106.961 369.993 105.452 381.343 109.878 390.56L159.375 341.063Z" fill="#C8C5C9"/>
<path d="M338.57 0C293.852 0 253.087 16.926 222.332 44.72C187.217 76.455 169.323 122.36 169.323 173.419C169.323 269.196 242.794 341 338.57 341C389.628 341 435.533 324.773 467.269 289.658C495.064 258.903 511.99 218.138 511.99 173.42C511.99 77.642 434.347 0 338.57 0V0ZM338.57 313.806C261.036 313.806 198.183 250.953 198.183 173.419C198.183 95.885 261.037 33.032 338.57 33.032C416.103 33.032 478.957 95.885 478.957 173.419C478.957 250.953 416.104 313.806 338.57 313.806Z" fill="#DAD8DB"/>
<path d="M316.826 119.231L302.523 127.489L281.878 91.7315L296.181 83.4735L316.826 119.231Z" fill="#FFD064"/>
<path d="M289.022 95.8571C293.583 95.8571 297.28 92.1598 297.28 87.5991C297.28 83.0383 293.583 79.3411 289.022 79.3411C284.461 79.3411 280.764 83.0383 280.764 87.5991C280.764 92.1598 284.461 95.8571 289.022 95.8571Z" fill="#FFE07D"/>
<path d="M360.312 227.605L374.614 219.347L395.259 255.104L380.957 263.362L360.312 227.605Z" fill="#FFD064"/>
<path d="M388.119 267.498C392.68 267.498 396.377 263.801 396.377 259.24C396.377 254.679 392.68 250.982 388.119 250.982C383.558 250.982 379.861 254.679 379.861 259.24C379.861 263.801 383.558 267.498 388.119 267.498Z" fill="#FFE07D"/>
<path d="M392.758 151.679L384.5 137.376L420.258 116.731L428.516 131.034L392.758 151.679Z" fill="#FFD064"/>
<path d="M424.391 132.129C428.952 132.129 432.649 128.432 432.649 123.871C432.649 119.31 428.952 115.613 424.391 115.613C419.83 115.613 416.133 119.31 416.133 123.871C416.133 128.432 419.83 132.129 424.391 132.129Z" fill="#FFE07D"/>
<path d="M284.384 195.164L292.642 209.466L256.885 230.111L248.627 215.809L284.384 195.164Z" fill="#FFD064"/>
<path d="M252.75 231.226C257.311 231.226 261.008 227.529 261.008 222.968C261.008 218.407 257.311 214.71 252.75 214.71C248.189 214.71 244.492 218.407 244.492 222.968C244.492 227.529 248.189 231.226 252.75 231.226Z" fill="#FFE07D"/>
<path d="M380.958 83.4679L395.26 91.7259L374.615 127.483L360.313 119.225L380.958 83.4679Z" fill="#FFD064"/>
<path d="M388.119 95.8571C392.68 95.8571 396.377 92.1598 396.377 87.5991C396.377 83.0383 392.68 79.3411 388.119 79.3411C383.558 79.3411 379.861 83.0383 379.861 87.5991C379.861 92.1598 383.558 95.8571 388.119 95.8571Z" fill="#FFE07D"/>
<path d="M296.181 263.375L281.878 255.117L302.523 219.36L316.826 227.618L296.181 263.375Z" fill="#FFD064"/>
<path d="M289.022 267.498C293.583 267.498 297.28 263.801 297.28 259.24C297.28 254.679 293.583 250.982 289.022 250.982C284.461 250.982 280.764 254.679 280.764 259.24C280.764 263.801 284.461 267.498 289.022 267.498Z" fill="#FFE07D"/>
<path d="M248.617 131.029L256.875 116.727L292.633 137.372L284.375 151.674L248.617 131.029Z" fill="#FFD064"/>
<path d="M252.75 132.129C257.311 132.129 261.008 128.432 261.008 123.871C261.008 119.31 257.311 115.613 252.75 115.613C248.189 115.613 244.492 119.31 244.492 123.871C244.492 128.432 248.189 132.129 252.75 132.129Z" fill="#FFE07D"/>
<path d="M428.525 215.805L420.267 230.108L384.51 209.463L392.768 195.16L428.525 215.805Z" fill="#FFD064"/>
<path d="M424.391 231.226C428.952 231.226 432.649 227.529 432.649 222.968C432.649 218.407 428.952 214.71 424.391 214.71C419.83 214.71 416.133 218.407 416.133 222.968C416.133 227.529 419.83 231.226 424.391 231.226Z" fill="#FFE07D"/>
<path d="M437.667 165.161V181.677H396.377V165.161H437.667Z" fill="#FFD064"/>
<path d="M437.667 181.677C442.228 181.677 445.925 177.98 445.925 173.419C445.925 168.858 442.228 165.161 437.667 165.161C433.106 165.161 429.409 168.858 429.409 173.419C429.409 177.98 433.106 181.677 437.667 181.677Z" fill="#FFE07D"/>
<path d="M239.473 181.677V165.161H280.763V181.677H239.473Z" fill="#FFD064"/>
<path d="M239.474 181.677C244.035 181.677 247.732 177.98 247.732 173.419C247.732 168.858 244.035 165.161 239.474 165.161C234.913 165.161 231.216 168.858 231.216 173.419C231.216 177.98 234.913 181.677 239.474 181.677Z" fill="#FFE07D"/>
<path d="M330.312 74.323H346.828V115.613H330.312V74.323Z" fill="#FFD064"/>
<path d="M338.57 82.5809C343.131 82.5809 346.828 78.8837 346.828 74.3229C346.828 69.7622 343.131 66.0649 338.57 66.0649C334.009 66.0649 330.312 69.7622 330.312 74.3229C330.312 78.8837 334.009 82.5809 338.57 82.5809Z" fill="#FFE07D"/>
<path d="M346.829 272.516H330.313V231.226H346.829V272.516Z" fill="#FFD064"/>
<path d="M338.57 280.774C343.131 280.774 346.828 277.077 346.828 272.516C346.828 267.955 343.131 264.258 338.57 264.258C334.009 264.258 330.312 267.955 330.312 272.516C330.312 277.077 334.009 280.774 338.57 280.774Z" fill="#FFE07D"/>
<path d="M404.635 173.419C404.635 187.977 399.926 201.435 391.948 212.354C379.931 228.8 360.498 234.5 338.57 234.5C302.084 234.5 274.823 209.906 274.823 173.419C274.823 151.49 283.19 132.056 299.637 120.04C310.555 112.063 324.013 107.355 338.57 107.355C375.057 107.355 404.635 136.933 404.635 173.419V173.419Z" fill="#FF8086"/>
<path d="M353.022 225.032C316.536 225.032 286.957 195.454 286.957 158.967C286.957 144.414 291.665 130.956 299.637 120.039C283.184 132.055 272.505 151.485 272.505 173.418C272.505 209.904 302.083 239.483 338.57 239.483C360.503 239.483 379.932 228.806 391.948 212.353C381.032 220.327 367.575 225.032 353.022 225.032Z" fill="#E5646E"/>
<path d="M331 143.5C331 148.199 325.776 152 319.333 152H307.667C301.224 152 296 148.198 296 143.5C296 138.802 301.224 135 307.667 135H319.333C325.777 135 331 138.801 331 143.5Z" fill="#FFE07D"/>
<path d="M342 207.774C336.472 207.774 332 204.076 332 199.516V191.258C332 186.698 336.473 183 342 183C347.527 183 352 186.698 352 191.258V199.516C352 204.076 347.528 207.774 342 207.774Z" fill="#FFE07D"/>
<path d="M370.333 152H358.667C352.217 152 347 148.194 347 143.5C347 138.806 352.219 135 358.667 135H370.333C376.783 135 382 138.806 382 143.5C382 148.194 376.781 152 370.333 152Z" fill="#FFE07D"/>
<path d="M368 171H364C361.789 171 360 168.313 360 165C360 161.687 361.789 159 364 159H368C370.211 159 372 161.687 372 165C372 168.313 370.211 171 368 171Z" fill="#FFE07D"/>
<path d="M316 171H312C309.789 171 308 168.313 308 165C308 161.687 309.789 159 312 159H316C318.211 159 320 161.687 320 165C320 168.313 318.211 171 316 171Z" fill="#FFE07D"/>
<path d="M350.957 334.452C255.18 334.452 177.538 256.809 177.538 161.033C177.538 116.298 194.519 75.4799 222.332 44.7209C187.235 76.4549 165.151 122.377 165.151 173.42C165.151 269.197 242.794 346.839 338.57 346.839C389.613 346.839 435.534 324.755 467.269 289.658C436.511 317.47 395.691 334.452 350.957 334.452V334.452Z" fill="#C8C5C9"/>
<path d="M126.343 374.095L14.4899 471.5L2.44489 497.995C3.62189 500.434 5.22188 502.721 7.24588 504.744C16.9209 514.419 32.6069 514.419 42.2819 504.744L149.637 397.389L126.343 374.095Z" fill="#9B959D"/>
<path d="M114.601 362.353L7.24587 469.708C-0.394129 477.348 -1.98613 488.781 2.43987 497.998L126.343 374.096L114.601 362.353Z" fill="#857E87"/>
</svg>
