<svg width="48" height="48" viewBox="0 0 48 48" fill="none" xmlns="http://www.w3.org/2000/svg">
<path d="M47.6095 28.2757L42.4749 23.7465L47.4279 19.0216C47.6098 18.848 47.6847 18.5912 47.6246 18.3476C47.5645 18.1042 47.3782 17.9112 47.1361 17.8413L40.544 15.9389L42.9804 9.55866C43.0699 9.32428 43.0268 9.06028 42.8675 8.86594C42.7081 8.67169 42.4566 8.57672 42.2077 8.61684L35.432 9.70922L34.8809 2.90663C34.8607 2.65669 34.7079 2.43647 34.4801 2.32903C34.2524 2.22159 33.9841 2.24306 33.7766 2.38538L28.1267 6.26119L24.6946 0.350812C24.5685 0.133688 24.3356 0 24.0834 0C23.8312 0 23.5983 0.133688 23.4722 0.350812L19.5326 7.13531L12.7179 3.20222C12.4997 3.07631 12.2307 3.07575 12.0121 3.20053C11.7934 3.32531 11.6584 3.55669 11.6577 3.80737L11.6412 10.6319L4.80078 10.0681C4.55 10.0475 4.30625 10.1616 4.16262 10.3675C4.0189 10.5735 3.99659 10.8401 4.10431 11.0668L7.03325 17.2388L0.610152 19.6464C0.374277 19.7348 0.203745 19.9417 0.162683 20.1892C0.12162 20.4365 0.216589 20.6868 0.411683 20.8457L5.71971 25.1724L0.955995 30.0859C0.781058 30.2663 0.716089 30.5259 0.785745 30.7669C0.855495 31.0078 1.04918 31.1934 1.29378 31.2538L7.95518 32.8992L5.77128 39.369C5.69103 39.6067 5.74446 39.8688 5.91134 40.0568C6.07831 40.2447 6.3334 40.3298 6.58043 40.2801L13.3079 38.926L14.1255 45.7021C14.1554 45.951 14.3169 46.165 14.5486 46.2637C14.7806 46.3623 15.0477 46.3304 15.2494 46.1801L20.7428 42.0882L24.4042 47.6725C24.5337 47.8768 24.7594 47.9999 25.0011 47.9999C25.0103 47.9999 25.0195 47.9997 25.0287 47.9993C25.2806 47.9896 25.5083 47.8469 25.6257 47.6251L28.8233 41.7746L34.6207 45.4284C34.8338 45.5627 35.1023 45.5737 35.3259 45.4575C35.5492 45.3413 35.6933 45.1153 35.7037 44.8648L35.9878 38.046L42.801 38.8747C43.0508 38.9051 43.2988 38.8006 43.4505 38.6003C43.6022 38.4 43.6348 38.1345 43.5362 37.9038L40.8516 31.6228L47.3639 29.4663C47.6032 29.3871 47.7817 29.187 47.8324 28.9414C47.883 28.6959 47.798 28.4422 47.6095 28.2757Z" fill="#FFA600"/>
<path d="M23.8453 38.4038C31.8743 38.4038 38.3831 31.9001 38.3831 23.8773C38.3831 15.8546 31.8743 9.35083 23.8453 9.35083C15.8164 9.35083 9.30762 15.8546 9.30762 23.8773C9.30762 31.9001 15.8164 38.4038 23.8453 38.4038Z" fill="#FFDB2D"/>
<path d="M23.8457 9.35089C23.4816 9.35089 23.1208 9.36467 22.7635 9.39102C30.287 9.94424 36.219 16.2184 36.219 23.8774C36.219 31.5363 30.287 37.8104 22.7635 38.3637C23.1208 38.39 23.4817 38.4038 23.8457 38.4038C31.8746 38.4038 38.3833 31.9001 38.3833 23.8775C38.3833 15.8546 31.8746 9.35089 23.8457 9.35089Z" fill="#FFCA00"/>
</svg>
